<svg width="28" height="28" viewBox="0 0 28 28" fill="none" xmlns="http://www.w3.org/2000/svg">
<path d="M13.4154 9.33333C16.332 9.33333 18.6654 11.6667 18.6654 14.5833C18.6654 17.5 16.332 19.8333 13.4154 19.8333C10.4987 19.8333 8.16536 17.5 8.16536 14.5833C8.16536 11.6667 10.4987 9.33333 13.4154 9.33333ZM13.4154 10.5C12.3324 10.5 11.2938 10.9302 10.528 11.696C9.76224 12.4618 9.33203 13.5004 9.33203 14.5833C9.33203 15.6663 9.76224 16.7049 10.528 17.4707C11.2938 18.2365 12.3324 18.6667 13.4154 18.6667C14.4983 18.6667 15.5369 18.2365 16.3027 17.4707C17.0685 16.7049 17.4987 15.6663 17.4987 14.5833C17.4987 13.5004 17.0685 12.4618 16.3027 11.696C15.5369 10.9302 14.4983 10.5 13.4154 10.5ZM5.83203 5.83333H8.16536L10.4987 3.5H16.332L18.6654 5.83333H20.9987C21.927 5.83333 22.8172 6.20208 23.4736 6.85846C24.1299 7.51484 24.4987 8.40508 24.4987 9.33333V19.8333C24.4987 20.7616 24.1299 21.6518 23.4736 22.3082C22.8172 22.9646 21.927 23.3333 20.9987 23.3333H5.83203C4.90377 23.3333 4.01353 22.9646 3.35716 22.3082C2.70078 21.6518 2.33203 20.7616 2.33203 19.8333V9.33333C2.33203 8.40508 2.70078 7.51484 3.35716 6.85846C4.01353 6.20208 4.90377 5.83333 5.83203 5.83333ZM10.977 4.66667L8.6437 7H5.83203C5.21319 7 4.6197 7.24583 4.18212 7.68342C3.74453 8.121 3.4987 8.7145 3.4987 9.33333V19.8333C3.4987 20.4522 3.74453 21.0457 4.18212 21.4832C4.6197 21.9208 5.21319 22.1667 5.83203 22.1667H20.9987C21.6175 22.1667 22.211 21.9208 22.6486 21.4832C23.0862 21.0457 23.332 20.4522 23.332 19.8333V9.33333C23.332 8.7145 23.0862 8.121 22.6486 7.68342C22.211 7.24583 21.6175 7 20.9987 7H18.187L15.8537 4.66667H10.977Z" fill="#9D9AA3"/>
</svg>
