<svg width="14" height="10" viewBox="0 0 14 10" fill="none" xmlns="http://www.w3.org/2000/svg">
<path d="M0.370666 5.39533L0.369333 5.38799L0.345999 5.34066L0.343333 5.32733L0.345999 5.31799L0.369333 5.27066C0.371555 5.26355 0.370444 5.25822 0.366 5.25466L0.359333 5.25199L0.074 5.24066L0.0606664 5.24399L0.0519994 5.25066L0.00266645 5.31999L-2.551e-08 5.32999L0.00266645 5.33799L0.0519994 5.40733L0.0626665 5.41533L0.074 5.41799L0.358667 5.40666C0.365778 5.40488 0.369778 5.4011 0.370666 5.39533ZM0.445999 5.57199L0.444667 5.56333L0.382666 5.43999L0.375999 5.43333L0.368666 5.43133L0.0819994 5.44333L0.074 5.44666L0.0693334 5.45199L0.00733308 5.58599C0.00511086 5.59444 0.00688825 5.60088 0.012666 5.60533L0.0219993 5.60799L0.431333 5.58533C0.439333 5.5831 0.444221 5.57866 0.445999 5.57199ZM0.444667 5.09533C0.446447 5.09239 0.447024 5.08888 0.446279 5.08552C0.445534 5.08217 0.443523 5.07923 0.440666 5.07733L0.431333 5.07333L0.0219993 5.05066C0.0139993 5.0511 0.0086659 5.05488 0.00599923 5.06199L0.00733311 5.07199L0.0693334 5.20599L0.0746663 5.21266L0.0819994 5.21533L0.368666 5.22666L0.376666 5.22466L0.383333 5.21799L0.444667 5.09533Z" fill="black"/>
<path d="M13.8763 1C13.8763 1.26522 13.7709 1.51957 13.5834 1.70711C13.3959 1.89464 13.1415 2 12.8763 2C12.6111 2 12.3567 1.89464 12.1692 1.70711C11.9816 1.51957 11.8763 1.26522 11.8763 1C11.8763 0.734784 11.9816 0.48043 12.1692 0.292894C12.3567 0.105357 12.6111 5.51247e-07 12.8763 5.6284e-07C13.1415 5.74433e-07 13.3959 0.105357 13.5834 0.292894C13.7709 0.48043 13.8763 0.734784 13.8763 1ZM13.8763 5C13.8763 5.26522 13.7709 5.51957 13.5834 5.70711C13.3959 5.89464 13.1415 6 12.8763 6C12.6111 6 12.3567 5.89464 12.1692 5.70711C11.9816 5.51957 11.8763 5.26522 11.8763 5C11.8763 4.73478 11.9816 4.48043 12.1692 4.29289C12.3567 4.10536 12.6111 4 12.8763 4C13.1415 4 13.3959 4.10536 13.5834 4.29289C13.7709 4.48043 13.8763 4.73478 13.8763 5ZM13.8763 9C13.8763 9.26522 13.7709 9.51957 13.5834 9.70711C13.3959 9.89464 13.1415 10 12.8763 10C12.6111 10 12.3567 9.89464 12.1692 9.70711C11.9816 9.51957 11.8763 9.26522 11.8763 9C11.8763 8.73478 11.9816 8.48043 12.1692 8.29289C12.3567 8.10536 12.6111 8 12.8763 8C13.1415 8 13.3959 8.10536 13.5834 8.29289C13.7709 8.48043 13.8763 8.73478 13.8763 9Z" fill="#C1BEC6"/>
</svg>
