<svg width="20" height="20" viewBox="0 0 20 20" fill="none" xmlns="http://www.w3.org/2000/svg">
<path d="M14.7719 7.77965C14.7719 7.30766 14.5844 6.855 14.2506 6.52125C13.9169 6.1875 13.4642 6 12.9922 6H6.76342C6.29143 6 5.83877 6.1875 5.50502 6.52125C5.17127 6.855 4.98377 7.30766 4.98377 7.77965M14.7719 7.77965V11.339M14.7719 7.77965H16.2623C16.616 7.78028 16.9579 7.90656 17.2271 8.13596C17.4962 8.36537 17.6751 8.68295 17.7318 9.03204C17.7884 9.38113 17.7192 9.73899 17.5364 10.0418C17.3537 10.3445 17.0692 10.5725 16.7339 10.6849L14.7719 11.339M14.7719 11.339C14.7719 11.811 14.5844 12.2636 14.2506 12.5974C13.9169 12.9311 13.4642 13.1186 12.9922 13.1186H6.76342C6.29143 13.1186 5.83877 12.9311 5.50502 12.5974C5.17127 12.2636 4.98377 11.811 4.98377 11.339M4.98377 11.339V7.77965M4.98377 11.339L3.0217 10.6849C2.6853 10.5735 2.39962 10.3458 2.21591 10.0428C2.03219 9.7397 1.96248 9.3811 2.01926 9.03129C2.07604 8.68148 2.25561 8.36335 2.52575 8.13397C2.79589 7.90459 3.13893 7.77898 3.49331 7.77965H4.98377" stroke="#B08FF4" stroke-linecap="round" stroke-linejoin="round"/>
<path d="M11.5321 8.02718L8.46794 11.0913M11.5321 11.0913L8.46794 8.02718" stroke="#B08FF4" stroke-linecap="round" stroke-linejoin="round"/>
</svg>
