<svg width="20" height="20" viewBox="0 0 20 20" fill="none" xmlns="http://www.w3.org/2000/svg">
<path d="M16.2304 8.97117C16.1056 7.72346 15.6295 6.53673 14.8574 5.54863C14.0854 4.56053 13.049 3.81157 11.8685 3.38862C10.688 2.96567 9.41184 2.88607 8.18794 3.15906C6.96405 3.43205 5.84264 4.04643 4.95379 4.93094C4.06495 5.81545 3.4451 6.93383 3.16616 8.15635C2.88722 9.37887 2.96061 10.6554 3.37782 11.8379C3.79504 13.0204 4.53898 14.0604 5.52333 14.8372C6.50769 15.614 7.69213 16.0959 8.93925 16.2268M7.42133 8.1577H7.42869M11.8425 8.1577H11.8498" stroke="#B08FF4" stroke-linecap="round" stroke-linejoin="round"/>
<path d="M7.78906 11.8421C8.27391 12.3373 8.93856 12.579 9.6312 12.579C9.72404 12.579 9.81639 12.5746 9.90826 12.5657M14.3618 12.2916C14.5055 12.1479 14.6761 12.0339 14.8638 11.9562C15.0516 11.8784 15.2528 11.8384 15.456 11.8384C15.6593 11.8384 15.8605 11.8784 16.0482 11.9562C16.236 12.0339 16.4066 12.1479 16.5503 12.2916C16.694 12.4353 16.8079 12.6059 16.8857 12.7936C16.9635 12.9814 17.0035 13.1826 17.0035 13.3858C17.0035 13.589 16.9635 13.7902 16.8857 13.978C16.8079 14.1657 16.694 14.3363 16.5503 14.48L14.0523 17H11.8418V14.7895L14.3618 12.2916Z" stroke="#B08FF4" stroke-linecap="round" stroke-linejoin="round"/>
</svg>
