<svg width="20" height="20" viewBox="0 0 20 20" fill="none" xmlns="http://www.w3.org/2000/svg">
<path d="M9.85806 14.1647C9.53703 14.1647 9.22495 14.0588 8.97023 13.8634C8.7155 13.668 8.53237 13.3941 8.44922 13.084" stroke="#B08FF4" stroke-linecap="round"/>
<path d="M8.71011 4.45093C9.17025 3.66848 9.40068 3.27689 9.72955 3.21855C9.81539 3.20303 9.90332 3.20303 9.98916 3.21855C10.318 3.27689 10.5485 3.66848 11.0086 4.45093L12.2249 6.51899C13.0749 7.96438 13.7382 9.51172 14.1989 11.124C14.9478 13.7441 12.9811 16.3525 10.2553 16.3525H9.46339C6.73831 16.3525 4.77088 13.7441 5.51979 11.124C5.98049 9.51172 6.64378 7.96438 7.49378 6.51899L8.71011 4.45093Z" stroke="#B08FF4"/>
</svg>
