<svg width="25" height="25" viewBox="0 0 25 25" fill="none" xmlns="http://www.w3.org/2000/svg">
<path d="M20.2695 13.5C21.2591 12.5 21.8737 11.1458 21.8737 9.6354C21.8737 8.18499 21.2975 6.79399 20.2719 5.7684C19.2464 4.74281 17.8554 4.16664 16.4049 4.16664C14.582 4.16664 12.9674 5.05206 11.9779 6.42706C11.4728 5.7255 10.8077 5.15448 10.0377 4.76136C9.26782 4.36825 8.41526 4.16437 7.55078 4.16664C6.10038 4.16664 4.70938 4.74281 3.68379 5.7684C2.6582 6.79399 2.08203 8.18499 2.08203 9.6354C2.08203 11.1458 2.69661 12.5 3.6862 13.5L11.9779 21.7916L20.2695 13.5Z" fill="#B08FF4"/>
</svg>
