<svg width="25" height="25" viewBox="0 0 25 25" fill="none" xmlns="http://www.w3.org/2000/svg">
<path d="M4.41536 12.7604C4.0035 12.3513 3.67718 11.8642 3.45542 11.3277C3.23366 10.7912 3.12089 10.2159 3.1237 9.6354C3.1237 8.46126 3.59012 7.33521 4.42036 6.50497C5.2506 5.67474 6.37665 5.20831 7.55078 5.20831C9.19662 5.20831 10.6341 6.10415 11.3945 7.43748H12.5612C12.9478 6.75941 13.5071 6.1959 14.1823 5.80433C14.8575 5.41275 15.6244 5.2071 16.4049 5.20831C17.5791 5.20831 18.7051 5.67474 19.5354 6.50497C20.3656 7.33521 20.832 8.46126 20.832 9.6354C20.832 10.8541 20.3112 11.9791 19.5404 12.7604L11.9779 20.3125L4.41536 12.7604ZM20.2695 13.5C21.2591 12.5 21.8737 11.1458 21.8737 9.6354C21.8737 8.18499 21.2975 6.79399 20.2719 5.7684C19.2464 4.74281 17.8554 4.16664 16.4049 4.16664C14.582 4.16664 12.9674 5.05206 11.9779 6.42706C11.4728 5.7255 10.8077 5.15448 10.0377 4.76136C9.26781 4.36825 8.41526 4.16437 7.55078 4.16664C6.10038 4.16664 4.70938 4.74281 3.68379 5.7684C2.6582 6.79399 2.08203 8.18499 2.08203 9.6354C2.08203 11.1458 2.69661 12.5 3.6862 13.5L11.9779 21.7916L20.2695 13.5Z" fill="#C1BEC6"/>
</svg>
