<svg width="56" height="56" viewBox="0 0 56 56" fill="none" xmlns="http://www.w3.org/2000/svg">
<rect width="56" height="56" rx="28" fill="white"/>
<path d="M19.548 25.735C19.9959 24.0633 20.9294 22.5619 22.2306 21.4208C23.5318 20.2797 25.1422 19.5501 26.858 19.3242C28.5739 19.0984 30.3182 19.3864 31.8704 20.152C33.4225 20.9175 34.7128 22.1261 35.578 23.625L35.913 24.384M31.603 24.397H35.75C35.8053 24.397 35.8597 24.3927 35.913 24.384C36.1469 24.3454 36.3594 24.2249 36.5127 24.0442C36.666 23.8634 36.7501 23.634 36.75 23.397V19.25M19.25 36.75V32.603C19.25 32.3378 19.3554 32.0834 19.5429 31.8959C19.7304 31.7084 19.9848 31.603 20.25 31.603M20.25 31.603H24.397M20.25 31.603L20.422 32.375C21.2872 33.8739 22.5775 35.0825 24.1296 35.8481C25.6818 36.6136 27.4261 36.9016 29.142 36.6758C30.8578 36.4499 32.4682 35.7203 33.7694 34.5792C35.0706 33.4381 36.0041 31.9367 36.452 30.265" stroke="#5F5C66" stroke-width="1.2" stroke-linecap="round" stroke-linejoin="round"/>
</svg>
