<svg width="36" height="36" viewBox="0 0 36 36" fill="none" xmlns="http://www.w3.org/2000/svg">
<path d="M9.60156 17.9459V8.09973M26.4016 27.792V24.0997M9.60156 27.792V22.869M26.4016 19.1767V8.09973M18.0016 11.792V8.09973M18.0016 27.792V16.7151" stroke="#5F5C66" stroke-width="0.9" stroke-linecap="round"/>
<path d="M9.59922 22.8685C10.9247 22.8685 11.9992 21.7664 11.9992 20.407C11.9992 19.0475 10.9247 17.9454 9.59922 17.9454C8.27374 17.9454 7.19922 19.0475 7.19922 20.407C7.19922 21.7664 8.27374 22.8685 9.59922 22.8685Z" stroke="#5F5C66" stroke-width="0.9" stroke-linecap="round"/>
<path d="M17.9977 16.7162C19.3231 16.7162 20.3977 15.6141 20.3977 14.2546C20.3977 12.8952 19.3231 11.7931 17.9977 11.7931C16.6722 11.7931 15.5977 12.8952 15.5977 14.2546C15.5977 15.6141 16.6722 16.7162 17.9977 16.7162Z" stroke="#5F5C66" stroke-width="0.9" stroke-linecap="round"/>
<path d="M26.4 24.099C27.7255 24.099 28.8 22.9969 28.8 21.6374C28.8 20.278 27.7255 19.1759 26.4 19.1759C25.0745 19.1759 24 20.278 24 21.6374C24 22.9969 25.0745 24.099 26.4 24.099Z" stroke="#5F5C66" stroke-width="0.9" stroke-linecap="round"/>
</svg>
