<svg width="28" height="28" viewBox="0 0 28 28" fill="none" xmlns="http://www.w3.org/2000/svg">
<path d="M14 5.25C14 5.09529 13.9385 4.94692 13.8291 4.83752C13.7197 4.72812 13.5714 4.66667 13.4167 4.66667C13.262 4.66667 13.1136 4.72812 13.0042 4.83752C12.8948 4.94692 12.8333 5.09529 12.8333 5.25V7.035C10.2083 7.32667 8.16667 9.54333 8.16667 12.25V19.145L6.31167 21H20.5217L18.6667 19.145V12.25C18.6667 9.54333 16.625 7.32667 14 7.035V5.25ZM13.4167 3.5C13.8808 3.5 14.3259 3.68437 14.6541 4.01256C14.9823 4.34075 15.1667 4.78587 15.1667 5.25V6.07833C17.8617 6.83667 19.8333 9.33333 19.8333 12.25V18.6667L23.3333 22.1667H3.5L7 18.6667V12.25C7 9.33333 8.97167 6.83667 11.6667 6.07833V5.25C11.6667 4.78587 11.851 4.34075 12.1792 4.01256C12.5074 3.68437 12.9525 3.5 13.4167 3.5ZM13.4167 25.6667C12.7443 25.6668 12.0925 25.4346 11.5716 25.0094C11.0508 24.5842 10.6928 23.9921 10.5583 23.3333H11.7717C11.8917 23.6738 12.1143 23.9686 12.409 24.1772C12.7036 24.3858 13.0557 24.4978 13.4167 24.4978C13.7776 24.4978 14.1297 24.3858 14.4244 24.1772C14.719 23.9686 14.9417 23.6738 15.0617 23.3333H16.275C16.1405 23.9921 15.7826 24.5842 15.2617 25.0094C14.7408 25.4346 14.089 25.6668 13.4167 25.6667Z" fill="#5F5C66"/>
</svg>
