<svg width="28" height="28" viewBox="0 0 28 28" fill="none" xmlns="http://www.w3.org/2000/svg">
<path d="M5.83203 24.5V8.16667H9.91536V7.58333C9.91536 6.44933 10.3124 5.48528 11.1065 4.69117C11.9006 3.89706 12.8647 3.5 13.9987 3.5C15.1327 3.5 16.0968 3.89706 16.8909 4.69117C17.685 5.48528 18.082 6.44933 18.082 7.58333V8.16667H22.1654V24.5H5.83203ZM6.9987 23.3333H20.9987V9.33333H18.082V12.8333H16.9154V9.33333H11.082V12.8333H9.91536V9.33333H6.9987V23.3333ZM11.082 8.16667H16.9154V7.58333C16.9154 6.762 16.6346 6.07056 16.073 5.509C15.5115 4.94744 14.82 4.66667 13.9987 4.66667C13.1774 4.66667 12.4859 4.94744 11.9244 5.509C11.3628 6.07056 11.082 6.762 11.082 7.58333V8.16667Z" fill="#5F5C66"/>
</svg>
