<svg width="21" height="18" viewBox="0 0 21 18" fill="none" xmlns="http://www.w3.org/2000/svg">
<path d="M8.112 3.352H9.156V11.2H8.112V8.2H6.408V7.348H8.112V6.172H6.408V5.32H8.112V3.352ZM0.756 4.18H6.312V5.032H5.304V8.632C5.76 8.608 6.192 8.56 6.612 8.512L6.672 9.292C4.656 9.604 2.28 9.652 0.588 9.652L0.468 8.776L1.776 8.764V5.032H0.756V4.18ZM2.364 10.564H3.396V12.832H9.42V13.672H2.364V10.564ZM2.784 8.752L4.296 8.704V5.032H2.784V8.752ZM11.3403 4.024H17.1123V4.852H14.7603V5.044C14.7603 6.388 15.8403 7.612 17.4123 8.092L16.9083 8.908C15.6843 8.524 14.7363 7.696 14.2563 6.64C13.8003 7.78 12.8403 8.668 11.5803 9.088L11.0523 8.272C12.6603 7.768 13.7043 6.46 13.7043 5.044V4.852H11.3403V4.024ZM18.5643 3.352H19.5963V9.064H18.5643V3.352ZM12.7803 9.568H13.7883V10.792H18.5763V9.568H19.5963V13.768H12.7803V9.568ZM13.7883 11.608V12.916H18.5763V11.608H13.7883Z" fill="#9D9AA3"/>
</svg>
