<svg width="28" height="28" viewBox="0 0 28 28" fill="none" xmlns="http://www.w3.org/2000/svg">
<path d="M11.0833 4.66663C13.0946 4.66663 15.0234 5.46558 16.4456 6.88773C17.8677 8.30988 18.6667 10.2387 18.6667 12.25C18.6667 14.14 17.9783 15.8666 16.835 17.185L23.4267 23.7766L22.5983 24.605L16.0067 18.0133C14.6361 19.1894 12.8893 19.8351 11.0833 19.8333C9.07211 19.8333 7.14326 19.0343 5.72111 17.6122C4.29896 16.19 3.5 14.2612 3.5 12.25C3.5 10.2387 4.29896 8.30988 5.72111 6.88773C7.14326 5.46558 9.07211 4.66663 11.0833 4.66663ZM11.0833 5.83329C9.38153 5.83329 7.74942 6.50933 6.54606 7.71269C5.34271 8.91605 4.66667 10.5482 4.66667 12.25C4.66667 13.9518 5.34271 15.5839 6.54606 16.7872C7.74942 17.9906 9.38153 18.6666 11.0833 18.6666C11.926 18.6666 12.7604 18.5007 13.5389 18.1782C14.3174 17.8557 15.0248 17.3831 15.6206 16.7872C16.2164 16.1914 16.6891 15.484 17.0116 14.7055C17.334 13.927 17.5 13.0926 17.5 12.25C17.5 11.4073 17.334 10.5729 17.0116 9.79441C16.6891 9.0159 16.2164 8.30853 15.6206 7.71269C15.0248 7.11685 14.3174 6.6442 13.5389 6.32173C12.7604 5.99926 11.926 5.83329 11.0833 5.83329Z" fill="#5F5C66"/>
</svg>
