<svg width="24" height="24" viewBox="0 0 24 24" fill="none" xmlns="http://www.w3.org/2000/svg">
<path d="M3.548 9.73501C3.99588 8.06329 4.92944 6.56194 6.23062 5.42082C7.5318 4.27971 9.14216 3.55008 10.858 3.32423C12.5739 3.09837 14.3182 3.38642 15.8704 4.15196C17.4225 4.9175 18.7128 6.12613 19.578 7.62501L19.913 8.38401M15.603 8.39701H19.75C19.8053 8.39701 19.8597 8.39267 19.913 8.38401C20.1469 8.34537 20.3594 8.22493 20.5127 8.04415C20.666 7.86338 20.7501 7.63403 20.75 7.39701V3.25001M3.25 20.75V16.603C3.25 16.3378 3.35536 16.0834 3.54289 15.8959C3.73043 15.7084 3.98478 15.603 4.25 15.603M4.25 15.603H8.397M4.25 15.603L4.422 16.375C5.28721 17.8739 6.57749 19.0825 8.12964 19.8481C9.68179 20.6136 11.4261 20.9016 13.142 20.6758C14.8578 20.4499 16.4682 19.7203 17.7694 18.5792C19.0706 17.4381 20.0041 15.9367 20.452 14.265" stroke="#5F5C66" stroke-width="1.2" stroke-linecap="round" stroke-linejoin="round"/>
</svg>
