<svg width="32" height="32" viewBox="0 0 32 32" fill="none" xmlns="http://www.w3.org/2000/svg">
<path d="M25.9465 17.2807C27.2132 16.0007 27.9998 14.2673 27.9998 12.334C27.9998 10.4775 27.2623 8.69702 25.9496 7.38426C24.6368 6.07151 22.8564 5.33401 20.9998 5.33401C18.6665 5.33401 16.5998 6.46734 15.3332 8.22734C14.6866 7.32934 13.8353 6.59843 12.8498 6.09525C11.8643 5.59206 10.773 5.3311 9.6665 5.33401C7.80999 5.33401 6.02951 6.07151 4.71676 7.38426C3.404 8.69702 2.6665 10.4775 2.6665 12.334C2.6665 14.2673 3.45317 16.0007 4.71984 17.2807L15.3332 27.894L25.9465 17.2807Z" fill="#6633CC"/>
</svg>
