<svg width="32" height="32" viewBox="0 0 32 32" fill="none" xmlns="http://www.w3.org/2000/svg">
<path d="M6.6665 26.6673V19.1287H25.3332V26.6673H6.6665ZM12.3852 16.77C10.8029 16.77 9.45406 16.2122 8.3385 15.0967C7.22384 13.982 6.6665 12.6344 6.6665 11.054C6.6665 9.47354 7.22384 8.12466 8.3385 7.00732C9.45317 5.88999 10.8025 5.33221 12.3865 5.33399H19.6172C21.1994 5.33399 22.5478 5.89132 23.6625 7.00599C24.7772 8.12066 25.3341 9.46999 25.3332 11.054C25.3323 12.638 24.775 13.9864 23.6612 15.0993C22.5474 16.2122 21.1989 16.7695 19.6158 16.7713L12.3852 16.77ZM12.3838 12.026C12.6594 12.026 12.8905 11.9327 13.0772 11.746C13.2638 11.5593 13.3576 11.3282 13.3585 11.0527C13.3594 10.7771 13.2661 10.546 13.0785 10.3593C12.8909 10.1727 12.6598 10.0789 12.3852 10.078C12.1105 10.0771 11.8794 10.1704 11.6918 10.358C11.5043 10.5455 11.4105 10.7767 11.4105 11.0513C11.4105 11.326 11.5038 11.5571 11.6905 11.7447C11.8772 11.9322 12.1083 12.026 12.3838 12.026ZM19.6145 12.026C19.8901 12.026 20.1212 11.9327 20.3078 11.746C20.4945 11.5593 20.5883 11.3282 20.5892 11.0527C20.5901 10.7771 20.4967 10.546 20.3092 10.3593C20.1216 10.1727 19.8905 10.0789 19.6158 10.078C19.3412 10.0771 19.1101 10.1704 18.9225 10.358C18.7349 10.5455 18.6412 10.7767 18.6412 11.0513C18.6412 11.326 18.7345 11.5571 18.9212 11.7447C19.1078 11.9322 19.3389 12.026 19.6145 12.026Z" fill="#6633CC"/>
</svg>
