<svg width="20" height="20" viewBox="0 0 20 20" fill="none" xmlns="http://www.w3.org/2000/svg">
<path d="M6.57533 17.3336L13.5703 10.3386L6.57533 3.34363L5.992 3.93529L12.3953 10.3386L5.992 16.742L6.57533 17.3336Z" fill="#9D9AA3"/>
<path d="M6.47168 3.23816L5.8877 3.82996L5.7832 3.9364L5.88867 4.04089L12.1865 10.3378L5.7832 16.7411L5.8877 16.8475L6.47168 17.4393L6.57715 17.5468L13.7852 10.3387L13.6797 10.2323L6.68457 3.23718L6.57715 3.13074L6.47168 3.23816ZM13.3613 10.3378L6.58008 17.12L6.20703 16.7421L12.5039 10.4442L12.6104 10.3387L6.20703 3.93445L6.58008 3.55652L13.3613 10.3378Z" fill="#9D9AA3"/>
</svg>
