<svg width="16" height="16" viewBox="0 0 16 16" fill="none" xmlns="http://www.w3.org/2000/svg">
<path d="M0 4.95381L6.47499 13.7141L3.13111 4.95312L0 4.95381Z" fill="white"/>
<path d="M0 3.81005H2.81936L1.90441 0.763L0 3.81005Z" fill="white"/>
<path d="M2.66406 0.00256348L3.80671 3.81138L6.85376 0.00256348H2.66406Z" fill="white"/>
<path d="M16 4.95381L9.52501 13.7141L12.8689 4.95312L16 4.95381Z" fill="white"/>
<path d="M16 3.81005H13.1806L14.0956 0.763L16 3.81005Z" fill="white"/>
<path d="M13.3359 0.00256348L12.1933 3.81138L9.14624 0.00256348H13.3359Z" fill="white"/>
<path d="M7.99609 15.6172L4.1875 4.95312H7.99609V15.6172ZM11.8057 4.95312L7.99707 15.6172V4.95312H11.8057Z" fill="white"/>
<path d="M11.0469 3.80859H4.95312L8 0L11.0469 3.80859Z" fill="white"/>
</svg>
