<svg width="36" height="36" viewBox="0 0 36 36" fill="none" xmlns="http://www.w3.org/2000/svg">
<path d="M9.60156 17.9477V8.10156M26.4016 27.7939V24.1016M9.60156 27.7939V22.8708M26.4016 19.1785V8.10156M18.0016 11.7939V8.10156M18.0016 27.7939V16.7169" stroke="#5F5C66" stroke-width="0.9" stroke-linecap="round"/>
<path d="M9.59922 22.8684C10.9247 22.8684 11.9992 21.7663 11.9992 20.4069C11.9992 19.0474 10.9247 17.9453 9.59922 17.9453C8.27374 17.9453 7.19922 19.0474 7.19922 20.4069C7.19922 21.7663 8.27374 22.8684 9.59922 22.8684Z" stroke="#5F5C66" stroke-width="0.9" stroke-linecap="round"/>
<path d="M17.9977 16.72C19.3231 16.72 20.3977 15.6179 20.3977 14.2584C20.3977 12.8989 19.3231 11.7969 17.9977 11.7969C16.6722 11.7969 15.5977 12.8989 15.5977 14.2584C15.5977 15.6179 16.6722 16.72 17.9977 16.72Z" stroke="#5F5C66" stroke-width="0.9" stroke-linecap="round"/>
<path d="M26.4 24.1028C27.7255 24.1028 28.8 23.0007 28.8 21.6412C28.8 20.2818 27.7255 19.1797 26.4 19.1797C25.0745 19.1797 24 20.2818 24 21.6412C24 23.0007 25.0745 24.1028 26.4 24.1028Z" stroke="#5F5C66" stroke-width="0.9" stroke-linecap="round"/>
</svg>
