<svg width="32" height="32" viewBox="0 0 32 32" fill="none" xmlns="http://www.w3.org/2000/svg">
<path d="M5.65317 16.334C5.12598 15.8103 4.70829 15.1869 4.42444 14.5002C4.14059 13.8135 3.99625 13.0771 3.99984 12.334C3.99984 10.8311 4.59686 9.38978 5.65957 8.32707C6.72227 7.26436 8.16361 6.66734 9.6665 6.66734C11.7732 6.66734 13.6132 7.81401 14.5865 9.52068H16.0798C16.5747 8.65275 17.2906 7.93146 18.1549 7.43024C19.0191 6.92903 20.0008 6.66579 20.9998 6.66734C22.5027 6.66734 23.9441 7.26436 25.0068 8.32707C26.0695 9.38978 26.6665 10.8311 26.6665 12.334C26.6665 13.894 25.9998 15.334 25.0132 16.334L15.3332 26.0007L5.65317 16.334ZM25.9465 17.2807C27.2132 16.0007 27.9998 14.2673 27.9998 12.334C27.9998 10.4775 27.2623 8.69702 25.9496 7.38426C24.6368 6.07151 22.8564 5.33401 20.9998 5.33401C18.6665 5.33401 16.5998 6.46734 15.3332 8.22734C14.6866 7.32934 13.8353 6.59843 12.8498 6.09525C11.8643 5.59206 10.773 5.3311 9.6665 5.33401C7.80999 5.33401 6.02951 6.07151 4.71676 7.38426C3.404 8.69702 2.6665 10.4775 2.6665 12.334C2.6665 14.2673 3.45317 16.0007 4.71984 17.2807L15.3332 27.894L25.9465 17.2807Z" fill="#5F5C66"/>
</svg>
