<svg width="28" height="28" viewBox="0 0 28 28" fill="none" xmlns="http://www.w3.org/2000/svg">
<path d="M12.832 21V11.375L9.04036 15.1667L8.16536 14.3967L13.4154 9.14667L18.6654 14.3967L17.7904 15.1667L13.9987 11.375V21H12.832ZM13.4154 3.5C16.3548 3.5 19.1739 4.6677 21.2525 6.74623C23.331 8.82476 24.4987 11.6439 24.4987 14.5833C24.4987 17.5228 23.331 20.3419 21.2525 22.4204C19.1739 24.499 16.3548 25.6667 13.4154 25.6667C10.4759 25.6667 7.65679 24.499 5.57826 22.4204C3.49974 20.3419 2.33203 17.5228 2.33203 14.5833C2.33203 11.6439 3.49974 8.82476 5.57826 6.74623C7.65679 4.6677 10.4759 3.5 13.4154 3.5ZM13.4154 4.66667C10.7853 4.66667 8.26296 5.71146 6.40322 7.57119C4.54349 9.43093 3.4987 11.9533 3.4987 14.5833C3.4987 17.2134 4.54349 19.7357 6.40322 21.5955C8.26296 23.4552 10.7853 24.5 13.4154 24.5C14.7176 24.5 16.0072 24.2435 17.2103 23.7451C18.4135 23.2468 19.5067 22.5163 20.4275 21.5955C21.3484 20.6746 22.0788 19.5814 22.5772 18.3783C23.0755 17.1751 23.332 15.8856 23.332 14.5833C23.332 11.9533 22.2872 9.43093 20.4275 7.57119C18.5678 5.71146 16.0454 4.66667 13.4154 4.66667Z" fill="#9D9AA3"/>
</svg>
