<svg width="76" height="16" viewBox="0 0 76 16" fill="none" xmlns="http://www.w3.org/2000/svg">
<path d="M7.85047 1.59961L9.83447 6.27161L14.9011 6.71961L11.0505 10.0689L12.2131 15.0076L7.85047 12.3836L3.49847 15.0076L4.65047 10.0689L0.799805 6.71961L5.86647 6.28228L7.85047 1.59961Z" fill="#DAC7FC"/>
<path d="M22.8505 1.59961L24.8345 6.27161L29.9011 6.71961L26.0505 10.0689L27.2131 15.0076L22.8505 12.3836L18.4985 15.0076L19.6505 10.0689L15.7998 6.71961L20.8665 6.28228L22.8505 1.59961Z" fill="#DAC7FC"/>
<path d="M37.8505 1.59961L39.8345 6.27161L44.9011 6.71961L41.0505 10.0689L42.2131 15.0076L37.8505 12.3836L33.4985 15.0076L34.6505 10.0689L30.7998 6.71961L35.8665 6.28228L37.8505 1.59961Z" fill="#DAC7FC"/>
<path d="M52.8505 1.59961L54.8345 6.27161L59.9011 6.71961L56.0505 10.0689L57.2131 15.0076L52.8505 12.3836L48.4985 15.0076L49.6505 10.0689L45.7998 6.71961L50.8665 6.28228L52.8505 1.59961Z" fill="#DAC7FC"/>
<path d="M67.8505 1.59961L69.8345 6.27161L74.9011 6.71961L71.0505 10.0689L72.2131 15.0076L67.8505 12.3836L63.4985 15.0076L64.6505 10.0689L60.7998 6.71961L65.8665 6.28228L67.8505 1.59961Z" fill="#DAC7FC"/>
<path d="M67.8516 1.59961L69.8356 6.27161L74.9022 6.71961L71.0516 10.0689L72.2142 15.0076L67.8516 12.3836V1.59961Z" fill="#F0EFF3"/>
</svg>
