<svg width="82" height="18" viewBox="0 0 82 18" fill="none" xmlns="http://www.w3.org/2000/svg">
<path d="M8.83874 2.0957L10.9794 7.13654L16.446 7.61991L12.2914 11.2337L13.5458 16.5622L8.83874 13.7311L4.14317 16.5622L5.38611 11.2337L1.23145 7.61991L6.69811 7.14805L8.83874 2.0957Z" fill="#DAC7FC"/>
<path d="M25.0233 2.0957L27.1639 7.13654L32.6306 7.61991L28.4759 11.2337L29.7304 16.5622L25.0233 13.7311L20.3277 16.5622L21.5707 11.2337L17.416 7.61991L22.8827 7.14805L25.0233 2.0957Z" fill="#DAC7FC"/>
<path d="M41.2069 2.0957L43.3475 7.13654L48.8142 7.61991L44.6595 11.2337L45.914 16.5622L41.2069 13.7311L36.5113 16.5622L37.7543 11.2337L33.5996 7.61991L39.0663 7.14805L41.2069 2.0957Z" fill="#DAC7FC"/>
<path d="M57.3915 2.0957L59.5321 7.13654L64.9988 7.61991L60.8441 11.2337L62.0986 16.5622L57.3915 13.7311L52.6959 16.5622L53.9388 11.2337L49.7842 7.61991L55.2508 7.14805L57.3915 2.0957Z" fill="#DAC7FC"/>
<path d="M73.576 2.0957L75.7167 7.13654L81.1833 7.61991L77.0287 11.2337L78.2831 16.5622L73.576 13.7311L68.8805 16.5622L70.1234 11.2337L65.9688 7.61991L71.4354 7.14805L73.576 2.0957Z" fill="#DAC7FC"/>
<path d="M73.5898 2.10588L75.7305 7.14672L81.1971 7.63009L77.0425 11.2438L78.2969 16.5724L73.5898 13.7412V2.10588Z" fill="#F0EFF3"/>
</svg>
