<svg width="32" height="32" viewBox="0 0 32 32" fill="none" xmlns="http://www.w3.org/2000/svg">
<path d="M15.9995 18C21.5195 18 25.9995 20.0933 25.9995 22.6667V26H5.99951V22.6667C5.99951 20.0933 10.4795 18 15.9995 18ZM15.9995 7C17.2372 7 18.4242 7.49167 19.2993 8.36684C20.1745 9.24201 20.6662 10.429 20.6662 11.6667C20.6662 12.9043 20.1745 14.0913 19.2993 14.9665C18.4242 15.8417 17.2372 16.3333 15.9995 16.3333C14.7618 16.3333 13.5749 15.8417 12.6997 14.9665C11.8245 14.0913 11.3328 12.9043 11.3328 11.6667C11.3328 10.429 11.8245 9.24201 12.6997 8.36684C13.5749 7.49167 14.7618 7 15.9995 7Z" fill="#6633CC"/>
</svg>
