<svg width="32" height="32" viewBox="0 0 32 32" fill="none" xmlns="http://www.w3.org/2000/svg">
<path d="M15.9995 18C21.5195 18 25.9995 20.0933 25.9995 22.6667V26H5.99951V22.6667C5.99951 20.0933 10.4795 18 15.9995 18ZM24.6662 22.6667C24.6662 20.8267 20.7862 19.3333 15.9995 19.3333C11.2128 19.3333 7.33285 20.8267 7.33285 22.6667V24.6667H24.6662V22.6667ZM15.9995 7C17.2372 7 18.4242 7.49167 19.2993 8.36684C20.1745 9.24201 20.6662 10.429 20.6662 11.6667C20.6662 12.9043 20.1745 14.0913 19.2993 14.9665C18.4242 15.8417 17.2372 16.3333 15.9995 16.3333C14.7618 16.3333 13.5749 15.8417 12.6997 14.9665C11.8245 14.0913 11.3328 12.9043 11.3328 11.6667C11.3328 10.429 11.8245 9.24201 12.6997 8.36684C13.5749 7.49167 14.7618 7 15.9995 7ZM15.9995 8.33333C15.1155 8.33333 14.2676 8.68452 13.6425 9.30964C13.0174 9.93477 12.6662 10.7826 12.6662 11.6667C12.6662 12.5507 13.0174 13.3986 13.6425 14.0237C14.2676 14.6488 15.1155 15 15.9995 15C16.8836 15 17.7314 14.6488 18.3565 14.0237C18.9817 13.3986 19.3328 12.5507 19.3328 11.6667C19.3328 10.7826 18.9817 9.93477 18.3565 9.30964C17.7314 8.68452 16.8836 8.33333 15.9995 8.33333Z" fill="#5F5C66"/>
</svg>
