<svg width="52" height="24" viewBox="0 0 52 24" fill="none" xmlns="http://www.w3.org/2000/svg">
<path d="M19.9691 17.8613H16.6409C17.1734 17.6172 17.5062 17.351 17.5062 15.7091V9.31895C17.5062 6.92266 16.3303 5.39169 14.3112 5.39169C12.9355 5.39169 11.6043 6.56765 10.6502 7.96549C10.7167 8.29831 10.7611 8.6755 10.7611 9.07488V15.7091C10.7611 16.53 10.8499 17.0181 11.0052 17.3066C11.1605 17.6172 11.3602 17.7503 11.6264 17.8613H8.29827C8.83078 17.6172 9.16359 17.351 9.16359 15.7091V9.14145C9.16359 6.72297 7.98764 5.39169 5.96854 5.39169C4.65945 5.39169 3.39475 6.3014 2.46285 7.58829V15.7091C2.46285 16.53 2.52942 17.0181 2.68473 17.3066C2.84005 17.6172 3.03974 17.7503 3.30599 17.8613H0C0.510321 17.6172 0.843139 17.351 0.843139 15.7091V6.36796C0.843139 5.52482 0 5.52482 0 5.52482L2.46285 4.74824V7.07797C3.52787 5.72451 4.9479 4.74824 6.65636 4.74824C8.32046 4.74824 9.98455 5.63576 10.5614 7.56611C11.6486 6.05733 13.1574 4.74824 14.9768 4.74824C17.0403 4.74824 19.0594 6.25702 19.1038 9.27457V15.7091C19.1038 16.53 19.1925 17.0181 19.3256 17.3066C19.481 17.6172 19.7028 17.7503 19.9691 17.8613ZM21.9481 6.36796C21.9481 5.52482 21.0828 5.52482 21.0828 5.52482L23.5457 4.74824V15.7091C23.5457 16.53 23.6344 17.0181 23.7897 17.3288C23.9229 17.6172 24.1447 17.7503 24.411 17.8613H21.0828C21.6153 17.6172 21.9481 17.3731 21.9481 15.7091V6.36796ZM23.9229 1.176C23.9229 1.81945 23.3904 2.32977 22.7469 2.32977C22.1035 2.32977 21.5931 1.81945 21.5931 1.176C21.5931 0.532547 22.1035 3.84962e-05 22.7469 3.84962e-05C23.3904 3.84962e-05 23.9229 0.532547 23.9229 1.176ZM35.7364 4.74824H37.8664C37.3339 5.0145 36.8679 5.39169 36.2689 6.98922L32.3416 16.3747C32.3416 16.3969 31.8757 17.4619 31.6982 17.8613C29.9453 21.5667 28.2147 23.5192 26.6615 23.5192C25.8184 23.5192 25.3081 22.9867 25.3081 22.1214C25.3081 19.6363 29.0356 17.7947 31.1657 17.1956L27.2606 7.63267C26.9278 6.76734 26.5949 6.10171 26.2843 5.63576C25.9959 5.16981 25.7074 4.88137 25.4634 4.74824H28.7694C28.5475 4.85918 28.3922 5.10325 28.3922 5.54701C28.3922 5.96858 28.5253 6.54546 28.8581 7.34423L32.2529 15.5981L35.8029 7.01141C36.047 6.41234 36.1579 5.94639 36.1579 5.59138C36.1579 5.14763 36.0026 4.88137 35.7364 4.74824ZM26.6615 23.1198C28.0372 23.1198 29.6791 21.1895 31.3432 17.6394L31.2544 17.3953C29.4128 17.9278 25.7074 19.8138 25.7074 22.1214C25.7074 22.9867 26.3065 23.1198 26.6615 23.1198ZM51.8051 17.8613H49.3644V13.69C48.1441 15.9753 46.3247 17.8613 43.8174 17.8613C42.7746 17.8613 41.7983 17.5285 41.0661 16.8185C40.3339 16.1084 39.8458 15.0434 39.8458 13.5346V6.36796C39.8458 5.52482 38.9805 5.52482 38.9805 5.52482L41.4433 4.74824V13.4681C41.4433 15.8866 42.6193 17.2178 44.6384 17.2178C46.6131 17.2178 48.4769 15.11 49.3644 12.9578V6.36796C49.3644 5.52482 48.4991 5.52482 48.4991 5.52482L50.9619 4.74824V16.7741C50.9619 17.6838 51.8051 17.8613 51.8051 17.8613Z" fill="#333333"/>
</svg>
