<svg width="89" height="45" viewBox="0 0 89 45" fill="none" xmlns="http://www.w3.org/2000/svg">
<rect width="89" height="45" rx="22.5" fill="#F6F2FF"/>
<path d="M29.324 16.702H30.71V29.092H29.324V16.702ZM20.784 17.962H27.784V19.068H26.524V24.808C27.154 24.766 27.77 24.71 28.358 24.64L28.442 25.634C25.796 26.068 22.856 26.11 20.602 26.124L20.462 24.976H22.058V19.068H20.784V17.962ZM23.374 24.948L25.194 24.892V19.068H23.374V24.948ZM32.6003 23.982H43.8283V25.074H38.8583V29.092H37.4863V25.074H32.6003V23.982ZM33.9583 17.206H35.3163V18.788H41.0703V17.206H42.4143V22.61H33.9583V17.206ZM35.3163 19.88V21.49H41.0703V19.88H35.3163ZM45.1867 17.668H51.9487V18.774H49.2747V19.25C49.2747 20.86 50.4227 22.358 52.3267 22.988L51.6127 24.052C50.1987 23.59 49.1487 22.61 48.6027 21.378C48.0567 22.708 46.9787 23.772 45.5087 24.29L44.8087 23.212C46.7407 22.54 47.8747 20.944 47.8747 19.25V18.774H45.1867V17.668ZM53.5027 16.716H54.9027V25.732H53.5027V16.716ZM46.8247 24.892H48.1967V27.72H55.2527V28.84H46.8247V24.892ZM65.095 16.688H66.467V20.272H68.231V21.392H66.467V25.662H65.095V16.688ZM57.339 17.724H62.827V18.858H58.711V22.414C61.077 22.4 62.407 22.33 63.905 22.022L64.045 23.114C62.421 23.45 60.979 23.548 58.319 23.548H57.339V17.724ZM58.655 24.752H60.027V27.72H66.985V28.84H58.655V24.752Z" fill="#6633CC"/>
</svg>
