<svg width="89" height="45" viewBox="0 0 89 45" fill="none" xmlns="http://www.w3.org/2000/svg">
<rect width="89" height="45" rx="22.5" fill="#F6F2FF"/>
<path d="M29.296 16.688H30.682V29.106H29.296V16.688ZM24.102 17.612C25.95 17.612 27.28 19.306 27.28 21.966C27.28 24.654 25.95 26.348 24.102 26.348C22.24 26.348 20.91 24.654 20.91 21.966C20.91 19.306 22.24 17.612 24.102 17.612ZM24.102 18.858C22.996 18.858 22.24 20.034 22.24 21.966C22.24 23.912 22.996 25.102 24.102 25.102C25.194 25.102 25.964 23.912 25.964 21.966C25.964 20.034 25.194 18.858 24.102 18.858ZM41.5043 16.702H42.8763V29.12H41.5043V21.812H37.8783V20.692H41.5043V16.702ZM33.2583 18.06H34.6163V24.99C36.3523 24.976 38.0043 24.864 39.7823 24.5L39.9363 25.648C37.9483 26.04 36.1563 26.138 34.2523 26.138H33.2583V18.06ZM44.6967 23.87H55.9247V24.976H53.2087V29.092H51.8227V24.976H48.7847V29.092H47.3847V24.976H44.6967V23.87ZM46.0547 17.178H47.4127V18.718H53.1667V17.178H54.5107V22.512H46.0547V17.178ZM47.4127 19.824V21.406H53.1667V19.824H47.4127ZM57.535 17.794H63.625V18.928H58.879V21.252H63.149V22.344H58.879V25.046C60.979 25.046 62.533 24.976 64.339 24.696L64.479 25.788C62.533 26.11 60.853 26.18 58.543 26.18H57.535V17.794ZM65.627 16.702H67.013V29.092H65.627V16.702Z" fill="#6633CC"/>
</svg>
