<svg width="89" height="45" viewBox="0 0 89 45" fill="none" xmlns="http://www.w3.org/2000/svg">
<rect width="89" height="45" rx="22.5" fill="#F6F2FF"/>
<path d="M29.31 16.702H30.682V29.12H29.31V16.702ZM21.288 17.85H27.182V18.984H22.646V24.934C24.956 24.934 26.454 24.85 28.148 24.528L28.274 25.676C26.454 26.026 24.858 26.082 22.31 26.082H21.288V17.85ZM40.8183 16.702H42.2043V21.476H44.1363V22.624H42.2043V29.092H40.8183V16.702ZM33.0623 17.724H34.4203V20.888H37.5703V17.724H38.9283V26.152H33.0623V17.724ZM34.4203 21.98V25.046H37.5703V21.98H34.4203ZM53.4887 16.688H54.8747V29.106H53.4887V16.688ZM48.2947 17.612C50.1427 17.612 51.4727 19.306 51.4727 21.966C51.4727 24.654 50.1427 26.348 48.2947 26.348C46.4327 26.348 45.1027 24.654 45.1027 21.966C45.1027 19.306 46.4327 17.612 48.2947 17.612ZM48.2947 18.858C47.1887 18.858 46.4327 20.034 46.4327 21.966C46.4327 23.912 47.1887 25.102 48.2947 25.102C49.3867 25.102 50.1567 23.912 50.1567 21.966C50.1567 20.034 49.3867 18.858 48.2947 18.858ZM61.623 17.486H63.079V18.424C63.079 20.426 65.109 22.33 67.531 22.764L66.915 23.898C64.913 23.464 63.149 22.19 62.351 20.468C61.539 22.176 59.775 23.464 57.787 23.898L57.185 22.764C59.579 22.316 61.623 20.412 61.623 18.424V17.486ZM56.793 26.348H68.021V27.468H56.793V26.348Z" fill="#6633CC"/>
</svg>
