<svg width="89" height="45" viewBox="0 0 89 45" fill="none" xmlns="http://www.w3.org/2000/svg">
<rect width="89" height="45" rx="22.5" fill="#F6F2FF"/>
<path d="M29.338 16.702H30.71V29.092H29.338V16.702ZM27.056 18.004C27.056 21.672 25.572 24.794 21.316 26.866L20.602 25.774C23.864 24.206 25.39 22.008 25.642 19.124H21.19V18.004H27.056ZM32.6003 26.432H37.5283V23.786H38.8863V26.432H43.8283V27.566H32.6003V26.432ZM33.6223 18.536H37.5283V16.912H38.8863V18.536H42.7923V19.656H38.9003C38.9703 21.336 40.7063 22.764 43.2963 23.128L42.7643 24.206C40.6923 23.884 39.0123 22.918 38.2143 21.518C37.4023 22.918 35.7223 23.884 33.6363 24.206L33.1183 23.128C35.6943 22.764 37.4303 21.336 37.5143 19.656H33.6223V18.536ZM50.1147 18.144C50.1147 19.32 50.0027 20.454 49.6947 21.518H51.3747V16.996H52.6627V28.476H51.3747V22.61H49.2887C48.6027 24.122 47.4267 25.466 45.4807 26.572L44.6967 25.606C46.4747 24.626 47.5387 23.436 48.1407 22.078L44.9067 22.414L44.7247 21.238L48.5047 21.014C48.6587 20.454 48.7427 19.866 48.7847 19.25H45.3407V18.144H50.1147ZM53.9507 16.702H55.2667V29.092H53.9507V16.702ZM60.111 17.612C61.791 17.612 63.023 19.04 63.219 21.322H65.683V16.688H67.055V29.106H65.683V22.428H63.233C63.093 24.85 61.833 26.348 60.111 26.348C58.305 26.348 56.989 24.654 56.989 21.966C56.989 19.306 58.305 17.612 60.111 17.612ZM60.111 18.858C59.047 18.858 58.291 20.034 58.291 21.966C58.291 23.912 59.047 25.102 60.111 25.102C61.217 25.102 61.945 23.912 61.945 21.966C61.945 20.034 61.217 18.858 60.111 18.858Z" fill="#6633CC"/>
</svg>
