<svg width="89" height="45" viewBox="0 0 89 45" fill="none" xmlns="http://www.w3.org/2000/svg">
<rect width="89" height="45" rx="22.5" fill="#F6F2FF"/>
<path d="M20.924 18.074H25.698V21.308H27.28V16.954H28.568V28.49H27.28V22.428H25.698V25.858H20.924V18.074ZM24.41 19.152H22.198V24.78H24.41V19.152ZM29.758 16.702H31.06V29.092H29.758V16.702ZM41.3923 16.688H42.7783V29.106H41.3923V16.688ZM36.1983 17.612C38.0463 17.612 39.3763 19.306 39.3763 21.966C39.3763 24.654 38.0463 26.348 36.1983 26.348C34.3363 26.348 33.0063 24.654 33.0063 21.966C33.0063 19.306 34.3363 17.612 36.1983 17.612ZM36.1983 18.858C35.0923 18.858 34.3363 20.034 34.3363 21.966C34.3363 23.912 35.0923 25.102 36.1983 25.102C37.2903 25.102 38.0603 23.912 38.0603 21.966C38.0603 20.034 37.2903 18.858 36.1983 18.858ZM45.9987 17.892H54.6227V19.376C54.6227 21.196 54.6227 22.89 54.0767 25.48L52.7047 25.354C52.9567 24.234 53.0967 23.254 53.1667 22.344L45.8447 22.722L45.6627 21.602L53.2227 21.322C53.2507 20.65 53.2507 20.006 53.2507 19.376V19.012H45.9987V17.892ZM44.6967 26.32H55.8967V27.468H44.6967V26.32ZM60.181 17.248C61.805 17.248 63.051 18.186 63.331 19.572H65.669V16.702H67.041V23.352H65.669V20.692H63.345C63.093 22.106 61.833 23.058 60.181 23.058C58.319 23.058 56.961 21.854 56.961 20.16C56.961 18.452 58.319 17.248 60.181 17.248ZM60.181 18.396C59.061 18.396 58.277 19.096 58.277 20.16C58.277 21.21 59.061 21.896 60.181 21.896C61.287 21.896 62.071 21.21 62.071 20.16C62.071 19.096 61.287 18.396 60.181 18.396ZM58.991 23.954H60.377V25.354H65.669V23.954H67.041V28.938H58.991V23.954ZM60.377 26.418V27.832H65.669V26.418H60.377Z" fill="#6633CC"/>
</svg>
