<svg width="46" height="18" viewBox="0 0 46 18" fill="none" xmlns="http://www.w3.org/2000/svg">
<path d="M0.984 4.348H5.772V5.188H2.004V10.456C3.84 10.456 5.064 10.396 6.456 10.12L6.576 10.96C5.064 11.26 3.78 11.32 1.788 11.32H0.984V4.348ZM8.136 3.34H9.168V13.924H8.136V8.008H5.172V7.156H8.136V3.34ZM10.8243 11.704H15.0723V9.484H11.9403V4.072H12.9723V5.92H18.2283V4.072H19.2603V9.484H16.1043V11.704H20.3883V12.568H10.8243V11.704ZM12.9723 6.76V8.644H18.2283V6.76H12.9723ZM28.8246 3.34H29.8686V13.9H28.8246V3.34ZM26.7486 4.468C26.7486 7.552 25.4166 10.228 21.8526 11.956L21.3006 11.128C24.1086 9.784 25.4886 7.804 25.6926 5.32H21.7926V4.468H26.7486Z" fill="#9D9AA3"/>
<path d="M39.5833 13.8816L44.3 9.16491L39.5833 4.44824L39 5.03991L43.125 9.16491L39 13.2899L39.5833 13.8816Z" fill="#9D9AA3"/>
</svg>
